<svg width="505" height="479" fill="none" xmlns="http://www.w3.org/2000/svg"><circle cx="290.5" cy="264.5" r="214.5" fill="#0694A2"/><path d="M419.33 312.182s29.26-7 30.23-8.21l-24.07-62a45.358 45.358 0 0 0-28.07-27.36 79.53 79.53 0 0 0-28.42-4.39l-40.63-2.15a80.482 80.482 0 0 0-32.06 8.87 64.697 64.697 0 0 0-30.09 33.17L248 295.622l46 9.61 1.75 48.9-6.93 67.47h126.86l-.88-106.94 4.53-2.48Z" fill="#0694A2"/><path d="M444.55 295.873c0 .14-7.55 2.62-17 5.53s-17.07 5.17-17.11 5c-.04-.17 7.54-2.62 17-5.54s17.07-5.13 17.11-4.99Z" fill="#fff" opacity=".3"/><path d="M311.78 252.292a6.719 6.719 0 0 1-.78-1.07c-.46-.7-1.17-1.7-2.09-2.9a48.428 48.428 0 0 0-3.45-4 53.12 53.12 0 0 0-4.76-4.4 55.684 55.684 0 0 0-5.31-3.74 51.234 51.234 0 0 0-4.67-2.51c-1.36-.65-2.49-1.13-3.28-1.44a5.654 5.654 0 0 1-1.21-.54c.436.08.864.197 1.28.35 1.141.374 2.262.804 3.36 1.29a46.55 46.55 0 0 1 4.77 2.44 51.384 51.384 0 0 1 5.38 3.74 48.892 48.892 0 0 1 4.79 4.48 44.645 44.645 0 0 1 3.39 4.14 31.782 31.782 0 0 1 2 3c.235.365.429.754.58 1.16ZM305.79 267.093c.14 0-1.28 14.94-3.17 33.34-1.89 18.4-3.54 33.31-3.68 33.29-.14-.02 1.27-14.94 3.17-33.34 1.9-18.4 3.57-33.31 3.68-33.29ZM405.68 239.472a28.162 28.162 0 0 1-.65-3 56.222 56.222 0 0 0-2-7.16 55.455 55.455 0 0 0-3-6.82 28.803 28.803 0 0 1-1.42-2.75s.22.21.53.65c.31.44.73 1.1 1.22 1.92a42.513 42.513 0 0 1 3.16 6.82 41.553 41.553 0 0 1 1.89 7.27c.15.95.24 1.72.28 2.26a2.93 2.93 0 0 1-.01.81ZM408.24 291.623a8.923 8.923 0 0 1-.24-1.47c-.13-.94-.28-2.32-.45-4-.33-3.4-.68-8.12-.86-13.33-.18-5.21-.17-9.95-.08-13.37.05-1.71.1-3.09.16-4 0-.497.05-.993.15-1.48.058.491.078.986.06 1.48v4.02c0 3.41.05 8.13.23 13.34.18 5.21.47 9.91.71 13.32.11 1.63.2 3 .28 4 .062.494.075.993.04 1.49Z" fill="#263238"/><path d="M346.8 282.893c-10.666.62-21.364.42-32-.6v4.18h32v-3.58Z" fill="#fff"/><path d="M378.68 213.753c.068.204.112.416.13.63l.28 1.84c.2 1.62.48 4 .71 7 .48 6 .9 14.55 1 24.64v.38l-.35-.16c-6.38-3.11-13.53-6.49-21-10.21l-36.37-18.2-11-5.57-3-1.53-.76-.42a1.142 1.142 0 0 1-.26-.15c.098.023.192.06.28.11l.79.36 3 1.45 11.06 5.42 36.49 18.06c7.44 3.72 14.58 7.11 21 10.24l-.34.21c-.11-10.07-.46-18.61-.86-24.62-.18-3-.42-5.37-.57-7-.09-.78-.16-1.4-.21-1.85a6.313 6.313 0 0 1-.02-.63ZM302.23 300.132a1.77 1.77 0 0 1-.53-.09l-1.49-.35-5.47-1.39c-4.62-1.19-11-2.8-18.06-4.51-7.06-1.71-13.48-3.19-18.13-4.25l-5.5-1.26-1.49-.36a2.475 2.475 0 0 1-.51-.16 1.96 1.96 0 0 1 .53 0l1.51.27c1.31.24 3.2.62 5.54 1.1 4.67 1 11.1 2.39 18.17 4.1a561.44 561.44 0 0 1 18 4.66c2.3.64 4.16 1.17 5.43 1.55l1.47.45c.185.061.363.141.53.24Z" fill="#fff" opacity=".3"/><path d="M373.05 206.182c0-.15 2.75 1.29 5.4 5.22 2.65 3.93 5.06 10 6.43 17a69.868 69.868 0 0 1 1.17 10c0 1.54.07 3 0 4.37s-.09 2.64-.21 3.8c-.12 1.16-.24 2.19-.34 3.12-.1.93-.28 1.69-.39 2.33a7.094 7.094 0 0 1-.48 2 7.66 7.66 0 0 1 .08-2l.21-2.34c.06-.93.12-2 .18-3.11.06-1.11 0-2.41.09-3.76.09-1.35-.07-2.8-.12-4.31a78.034 78.034 0 0 0-1.23-9.8 53.348 53.348 0 0 0-6-16.77 23.022 23.022 0 0 0-3.33-4.24 19.094 19.094 0 0 1-1.46-1.51ZM327.58 206.473a21.648 21.648 0 0 1-2.11 3 42.852 42.852 0 0 0-4.71 8.8 59.895 59.895 0 0 0-3.49 14.37c-.73 5.54-1 11.74-1.45 18.23-.45 6.49-.35 12.67-.36 18.3-.01 5.63 0 10.71 0 15 0 4.29-.11 7.73-.23 10.12a17.168 17.168 0 0 1-.37 3.7 17.404 17.404 0 0 1-.24-3.71c-.07-2.43-.15-5.87-.26-10.1-.11-4.23-.25-9.34-.33-15-.08-5.66-.1-11.86.24-18.4.34-6.54.76-12.71 1.58-18.34a57.34 57.34 0 0 1 3.9-14.6 36.62 36.62 0 0 1 5.25-8.73 13.557 13.557 0 0 1 2.58-2.64Z" fill="#263238"/><path d="M394.82 290.062a18.975 18.975 0 0 1-.2-3.3c-.06-2.13-.11-5.21-.15-9 0-1.91 0-4-.06-6.22-.06-2.22 0-4.64-.13-7.1a11.748 11.748 0 0 0-2.55-7 9.642 9.642 0 0 0-7-3.34 11.002 11.002 0 0 0-7.37 2.86 12.698 12.698 0 0 0-3.72 6.49c-.62 2.38-.88 4.77-1.25 7l-1 6.14c-.6 3.75-1.11 6.79-1.48 8.88a20.106 20.106 0 0 1-.68 3.24c-.005-1.106.089-2.21.28-3.3.25-2.11.64-5.16 1.15-8.93.26-1.89.55-3.95.85-6.16.3-2.21.56-4.59 1.18-7.09a13.503 13.503 0 0 1 4-7 12.002 12.002 0 0 1 7.99-3.16 10.6 10.6 0 0 1 7.8 3.71 12.601 12.601 0 0 1 2.74 7.58c.15 2.56 0 4.93 0 7.17s-.05 4.32-.08 6.22c0 3.8-.11 6.88-.18 9a20.334 20.334 0 0 1-.14 3.31Z" fill="#263238"/><path d="M385.17 244.343c-.33 3.5-1.45 7.43-3.88 10 2.13-.461 4.338-.42 6.45.12-1.52-3-1.76-6.7-1.72-10.09M394.85 267.092c-.19 0-.3-1.68-1.58-4a12.46 12.46 0 0 0-2.91-3.48 10.809 10.809 0 0 0-4.92-2.34 10.505 10.505 0 0 0-5.42.54 11.842 11.842 0 0 0-3.87 2.34c-1.94 1.76-2.58 3.36-2.75 3.27-.17-.09.3-1.77 2.24-3.8a11.655 11.655 0 0 1 4-2.7 11.007 11.007 0 0 1 5.94-.68 11.207 11.207 0 0 1 5.36 2.64 11.936 11.936 0 0 1 2.94 3.87c1.23 2.56 1.06 4.35.97 4.34Z" fill="#263238"/><path d="M421.61 380.372c6 0 11.28-4.29 14.08-9.54 2.8-5.25 3.52-11.36 3.79-17.31a140.5 140.5 0 0 0-5.72-46.7l-26.08 4.55 7.11 70.29 6.82-1.29Z" fill="#FFBE9D"/><path d="m316.05 389.122 84.98-3.09 20.61-99.58-89.51 4.97-16.08 97.7Z" fill="#263238"/><path d="m359.79 289.713 1.28-2.54 6.78-.49s1.72-4.45 11.42-4.91c8.68-.4 9 4 9 4h4.68v2.13l-33.16 1.81Z" fill="#455A64"/><path d="m407.17 357.033 6.44-1.87a7.85 7.85 0 0 1 3.73-.17 7.86 7.86 0 0 1 4 2.11c2.13 2.1 5.57 5.57 6.06 6.61.72 1.51.72 4.13 0 5.09s1.58 5.93 1.29 7.58a10.321 10.321 0 0 1-1.29 4c-.58.69 0 3.05-1.44 4.83a23.9 23.9 0 0 1-2.73 2.88s-17.7.83-19.42 0c-1.72-.83-4.75-4-4.75-4s-1.58-2.89.86-3.17l-10.07-3.85a2.402 2.402 0 0 1-1.46-3 1.683 1.683 0 0 1 .89-1s-4.52-1.43-5.57-1.89c-2.09-.92-2.88-5.78 1.45-5.16 2.28.33 5.37 1 5.37 1s-1.65-2.68.66-4.28c1.4-1 7.7.21 7.7.21l8.28-5.91v-.01Z" fill="#FFBE9D"/><path d="M409.41 383.593a14.892 14.892 0 0 1-5.23-.78 13.01 13.01 0 0 1-4.82-2.18c.07-.12 2.18.91 5 1.68 2.82.77 5.07 1.16 5.05 1.28ZM405.56 377.303a68.334 68.334 0 0 1-8.21-1.83 65.917 65.917 0 0 1-8.08-2.33c5.51 1.051 10.95 2.44 16.29 4.16ZM407.68 371.043a155.378 155.378 0 0 1-17.56-4.11 155.162 155.162 0 0 1 17.56 4.11ZM414.21 362.982c-.729.321-1.49.566-2.27.73l-2.5.64-1.48.37a5.592 5.592 0 0 1-1.7.16 9.329 9.329 0 0 1-1.66-.27l-1.49-.34-2.5-.6a10.97 10.97 0 0 1-2.29-.69 10.74 10.74 0 0 1 2.36.33l2.54.49c1.013.24 2.038.427 3.07.56a11.213 11.213 0 0 0 3-.47l2.53-.54a11.168 11.168 0 0 1 2.39-.37ZM415.34 366.373c.06 0 .3.18.49.66.257.638.282 1.346.07 2a3 3 0 0 1-1.18 1.59c-.43.28-.75.32-.78.26-.03-.06 1-.68 1.46-2a5.557 5.557 0 0 0-.06-2.51ZM414.98 373.213c.12-.06.52.65.46 1.62-.06.97-.52 1.64-.64 1.56-.12-.08.08-.74.12-1.59.04-.85-.09-1.54.06-1.59ZM415.08 380.632c.13-.05.4.43.27 1.06-.13.63-.55 1-.66.87-.11-.13.06-.48.15-1s.1-.89.24-.93Z" fill="#EB996E"/><path d="M417.01 362.572a5.422 5.422 0 0 1-1.7-.08l-1.82-.24a7.12 7.12 0 0 0-2.17-.11 5.424 5.424 0 0 0-1.92.87c-.56.37-1 .79-1.51 1.06a2.862 2.862 0 0 1-1.63.56c0-.09.61-.26 1.43-.87a8.716 8.716 0 0 1 3.56-2.13 6.375 6.375 0 0 1 1.22 0c.41 0 .74.12 1.09.18l1.81.34a6.034 6.034 0 0 1 1.64.42ZM427.23 380.703a8.66 8.66 0 0 1 .45-1.23 8.678 8.678 0 0 0 .33-6c-.2-.88-.61-1.76-.83-2.81a8.812 8.812 0 0 1 .22-3.27 5.803 5.803 0 0 0-.58-3.21 15.031 15.031 0 0 0-1.84-2.85c-.69-.87-1.36-1.72-2-2.48a11.858 11.858 0 0 0-4.19-3.27 6.741 6.741 0 0 0-3.52-.54c-.84.12-1.28.34-1.3.3-.02-.04.1-.08.31-.19a4.93 4.93 0 0 1 1-.31 6.754 6.754 0 0 1 3.69.39 11.894 11.894 0 0 1 4.4 3.3c.7.77 1.38 1.61 2.08 2.48a15.734 15.734 0 0 1 1.91 3 6.207 6.207 0 0 1 .61 3.5 9.003 9.003 0 0 0-.25 3.11c.19 1 .59 1.89.78 2.79a10 10 0 0 1 .33 2.57 9.16 9.16 0 0 1-.89 3.6c-.186.403-.425.78-.71 1.12Z" fill="#EB996E"/><path d="m367.74 331.473-69.77 11.08 3.1-36.41-38.8-7.5-4.72 53.91-.82 12.36a24.15 24.15 0 0 0 10.13 21.28 24.177 24.177 0 0 0 21.42 3.28l15-4.89 73.12-26" fill="#FFBE9D"/><path d="M409.96 323.942a2.001 2.001 0 0 0-2-2.33c-3.93 0-14.55 0-18.3 1.11-4.64 1.31-21.93 8.73-21.93 8.73l7.33 27 26.53.28s9.69-4.45 9.81-6.38a31.143 31.143 0 0 0-.24-3.61l2.93-1.57c4.36-2.76 1.56-8.07 1.56-8.07s3-1.68 3.16-4.72a4.72 4.72 0 0 0-2.34-4.47s1.2-4.28-1-5.43c-2.2-1.15-6 .32-6 .32.253-.225.425-.527.49-.86Z" fill="#FFBE9D"/><path d="M411.49 324.383c-.256.14-.533.237-.82.29-.53.15-1.32.32-2.29.49-2 .35-4.66.64-7.65 1-2.548.23-5.08.617-7.58 1.16-1.91.44-3 1-3 1 .218-.193.464-.352.73-.47.706-.35 1.442-.635 2.2-.85a46.833 46.833 0 0 1 7.61-1.32c3-.32 5.71-.55 7.65-.8 1.94-.25 3.12-.57 3.15-.5ZM416.48 329.803a6.423 6.423 0 0 1-1.87.95 29.818 29.818 0 0 1-4.83 1.41c-1.93.4-3.68.66-5 .83a8.66 8.66 0 0 1-2.07.16c0-.17 3.1-.73 6.92-1.5a50.02 50.02 0 0 0 4.82-1.24 11.772 11.772 0 0 1 2.03-.61ZM415.68 339.203a28.776 28.776 0 0 1-11.64 2.64c0-.16 2.64-.49 5.84-1.22 3.2-.73 5.8-1.57 5.8-1.42ZM414.1 347.223a20.012 20.012 0 0 1-9 2.17 745.694 745.694 0 0 0 9-2.17ZM400.26 342.473c0 .06-.27.23-.81.28a3.003 3.003 0 0 1-2-.55 3.07 3.07 0 0 1-1.19-1.71c-.13-.53-.06-.86 0-.86s.28 1.29 1.48 2.14a5.517 5.517 0 0 0 2.52.7ZM399.68 350.813c0 .14-1 .2-1.95-.61s-1-1.87-.83-1.86c.17.01.41.8 1.18 1.47.77.67 1.6.85 1.6 1ZM396.68 333.782c.06.14-.67.37-1.35-.15s-.66-1.28-.51-1.26c.15.02.32.49.82.85.5.36.97.42 1.04.56Z" fill="#EB996E"/><path d="m367.74 331.473.21-.12.63-.29 2.46-1.09c2.16-.93 5.29-2.28 9.26-3.91 2-.8 4.16-1.69 6.56-2.58a24.758 24.758 0 0 1 3.8-1.18 39.885 39.885 0 0 1 4.22-.52c2.9-.23 6-.33 9.18-.37h3.67c.457-.024.912.073 1.32.28a2.118 2.118 0 0 1 1.13 2.41.75.75 0 0 1-.3.34l-.3.19-.6.28c-.41.175-.831.322-1.26.44a.26.26 0 0 1-.31-.18.238.238 0 0 1-.007-.099.233.233 0 0 1 .032-.094.247.247 0 0 1 .065-.075.256.256 0 0 1 .09-.042 27.211 27.211 0 0 1 3.3-.74 11.977 11.977 0 0 1 3.5-.12 3.21 3.21 0 0 1 1.72.74c.45.462.747 1.052.85 1.69a8.822 8.822 0 0 1-.23 3.65l-.13-.31a4.92 4.92 0 0 1 1.47 1.3 5.203 5.203 0 0 1 .76 4.73 7.006 7.006 0 0 1-3 3.63l.1-.35a8.267 8.267 0 0 1 .84 4.62 5.304 5.304 0 0 1-2.5 3.78l-2.92 1.57.13-.25c.07.7.14 1.4.19 2.09 0 .34 0 .69.05 1v.53a1.396 1.396 0 0 1-.21.57 6.415 6.415 0 0 1-1.51 1.44c-.54.4-1.1.76-1.65 1.1a72.641 72.641 0 0 1-6.59 3.45h-.09l-19.31-.3-5.34-.11-1.4-.05c-.16.017-.32.017-.48 0 .16-.016.32-.016.48 0h6.74l19.31.11h-.09a70.817 70.817 0 0 0 6.53-3.46c.54-.33 1.09-.69 1.61-1.08.529-.358.996-.8 1.38-1.31a.867.867 0 0 0 .15-.35v-1.49c-.05-.68-.12-1.37-.2-2.06a.226.226 0 0 1 .026-.142.224.224 0 0 1 .104-.098l2.92-1.58a4.809 4.809 0 0 0 2.27-3.43 7.844 7.844 0 0 0-.8-4.31.26.26 0 0 1 .11-.34 6.527 6.527 0 0 0 2.8-3.34 4.71 4.71 0 0 0-.69-4.26 4.307 4.307 0 0 0-1.29-1.14.271.271 0 0 1-.13-.3c.306-1.11.38-2.271.22-3.41a2.257 2.257 0 0 0-2.14-2 11.337 11.337 0 0 0-3.34.12 24.725 24.725 0 0 0-3.24.71l-.13-.49a8.762 8.762 0 0 0 1.74-.66c.17-.09.35-.27.41-.25a2.132 2.132 0 0 0-.16-1.05 1.839 1.839 0 0 0-.77-.77 2.078 2.078 0 0 0-1.09-.22h-3.66c-3.2 0-6.27.12-9.16.33a41.15 41.15 0 0 0-4.17.49c-1.277.285-2.53.666-3.75 1.14-2.39.87-4.58 1.74-6.57 2.52l-9.31 3.77-2.49 1-.65.26-.37.04ZM298.25 342.473a27.5 27.5 0 0 0-5.15 4.45 27.112 27.112 0 0 0-3.44 5.88 5.648 5.648 0 0 1 .52-2 15.72 15.72 0 0 1 6.23-7.49 5.784 5.784 0 0 1 1.84-.84Z" fill="#EB996E"/><path d="M389.36 126.722a35.238 35.238 0 0 0-35.06-32.48h-1.83c-19.68 1.11-29.74 18.44-28.08 38.09l3.39 78.75a3.568 3.568 0 0 0 2 3.06l44.18 20.73-1.28-41.33s18.93-2.9 19.2-21.82c.08-9.13-1.2-27.97-2.52-45Z" fill="#FFBE9D"/><path d="M372.79 193.473a45.815 45.815 0 0 1-24.77-7.3s5.8 13.62 24.68 12l.09-4.7Z" fill="#EB996E"/><path d="M382.68 138.472a2.713 2.713 0 0 1-2.61 2.72 2.565 2.565 0 0 1-2.528-1.446 2.561 2.561 0 0 1-.252-.994 2.692 2.692 0 0 1 2.6-2.72 2.586 2.586 0 0 1 1.909.633 2.595 2.595 0 0 1 .881 1.807ZM354.08 139.352a2.693 2.693 0 0 1-2.61 2.72 2.562 2.562 0 0 1-1.905-.633 2.584 2.584 0 0 1-.875-1.807 2.699 2.699 0 0 1 2.61-2.72 2.58 2.58 0 0 1 2.78 2.44ZM367.21 158.032c0-.16 1.79-.47 4.72-.84.74-.08 1.45-.22 1.57-.73a3.737 3.737 0 0 0-.49-2.2l-2.18-5.66c-3-8-5.23-14.67-4.9-14.79.33-.12 3 6.31 6.08 14.37l2.09 5.69c.466.895.6 1.926.38 2.91a1.85 1.85 0 0 1-1.23 1.08 5.159 5.159 0 0 1-1.26.18c-2.94.15-4.77.16-4.78-.01ZM358.68 160.033c.47 0 .47 3.12 3.17 5.37s6.05 1.9 6.08 2.34c0 .2-.75.62-2.17.65a7.853 7.853 0 0 1-5.08-1.78 6.842 6.842 0 0 1-2.45-4.5c-.15-1.32.2-2.1.45-2.08ZM357.954 128.67c-.29.79-3.19.41-6.6.82-3.41.41-6.17 1.33-6.63.62-.2-.34.28-1.09 1.4-1.85a11.121 11.121 0 0 1 4.91-1.71 11.004 11.004 0 0 1 5.16.62c1.25.51 1.88 1.13 1.76 1.5ZM384.704 131.17c-.52.65-2.52 0-4.93-.07-2.41-.07-4.44.43-4.91-.26-.21-.33.12-1 1-1.62a7.14 7.14 0 0 1 7.92.26c.86.68 1.14 1.36.92 1.69Z" fill="#263238"/><path d="M327.22 146.332c-.32-.14-13-3.87-12.6 9.07.4 12.94 13.29 9.87 13.3 9.5.01-.37-.7-18.57-.7-18.57Z" fill="#FFBE9D"/><path d="M324.96 160.123c-.06 0-.22.16-.6.35a2.262 2.262 0 0 1-1.68.09c-1.38-.47-2.6-2.6-2.73-4.93a7.554 7.554 0 0 1 .53-3.24 2.594 2.594 0 0 1 1.65-1.78 1.157 1.157 0 0 1 1.35.57c.18.36.11.62.17.64.06.02.28-.22.16-.75a1.507 1.507 0 0 0-.54-.8 1.688 1.688 0 0 0-1.25-.29 3.174 3.174 0 0 0-2.3 2.07 7.656 7.656 0 0 0-.67 3.63c.16 2.61 1.57 5 3.45 5.49a2.397 2.397 0 0 0 2-.41c.44-.29.5-.62.46-.64Z" fill="#EB996E"/><path d="m335.68 107.893 53.92 1.19a24.581 24.581 0 0 0-7.92-9.16 42.07 42.07 0 0 0-24.42-8.79c-8.79-.16-26.7 10.56-33.07 16.62-5.1 4.85-5.06 9.05-5.06 9.05-.81 7 3.1 14.94 4.66 21.81.8 3.54 2.35 14.25 2.35 14.25 3 0 4.07-2.37 3.62-5.31l-.55-11.53s10.1-7.18 5.31-20.32c-.74-1.05-2.38-5.85 1.16-7.81Z" fill="#263238"/><path d="M347.02 148.792a.306.306 0 0 1-.127-.021.326.326 0 0 1-.213-.299.342.342 0 0 1 .24-.41.353.353 0 0 1 .39.29.343.343 0 0 1-.148.393.341.341 0 0 1-.142.047ZM352.58 147.543c-.18 0-.35-.11-.4-.33a.382.382 0 0 1 .24-.46.367.367 0 0 1 .39.34.358.358 0 0 1-.23.45ZM356.32 147.473c-.18 0-.35-.19-.39-.48-.04-.29.08-.54.26-.56.18-.02.34.19.38.48.04.29-.08.56-.25.56ZM349.74 152.283c-.17 0-.32-.09-.32-.2 0-.11.15-.21.32-.21s.32.1.32.21c0 .11-.14.2-.32.2ZM354.84 151.113a.363.363 0 0 1-.39-.33.362.362 0 0 1 .33-.39.342.342 0 0 1 .35.33.352.352 0 0 1-.29.39ZM381.35 148.003a.332.332 0 0 1-.38-.29.35.35 0 0 1 .24-.42.35.35 0 0 1 .39.29.342.342 0 0 1-.127.363.354.354 0 0 1-.123.057ZM385.14 147.663a.415.415 0 0 1-.453-.14.413.413 0 0 1-.019-.473.409.409 0 0 1 .654-.046c.055.064.09.144.098.229a.37.37 0 0 1-.28.43ZM378.01 148.093a.31.31 0 0 1-.37-.21.322.322 0 1 1 .63-.13.312.312 0 0 1-.26.34ZM380.81 151.882a.373.373 0 0 1-.22.062.377.377 0 0 1-.352-.488.373.373 0 0 1 .127-.189.387.387 0 0 1 .214-.082.39.39 0 0 1 .221.055.385.385 0 0 1 .15.172.352.352 0 0 1-.14.47ZM384.04 151.242a.3.3 0 0 1-.24-.34.334.334 0 0 1 .377-.161c.072.02.135.063.179.124.045.06.067.133.064.207a.302.302 0 0 1-.38.17Z" fill="#EB996E"/><path d="M323.86 108.473a15.94 15.94 0 0 1 15.93-19.82c2.52.1 5 .81 7.52.54 4.67-.51 8.27-4.25 12.6-6.07a16.44 16.44 0 0 1 19.39 5.82c1.64 2.45 2.71 5.48 5.23 7 2.17 1.33 4.91 1.22 7.35 2 4.94 1.48 8.32 6.73 8.06 11.88a14.115 14.115 0 0 1-8.61 11.88 17.283 17.283 0 0 1-14.9-1c-4.07-2.27-7.71-6.13-12.37-6-4.82.14-9 4.68-13.76 3.74-2.48-.49-4.39-2.4-6.21-4.16-1.82-1.76-3.9-3.55-6.43-3.7-2.53-.15-3.84 3.32-2.93 5.68l-10.87-7.79Z" fill="#263238"/><path d="M388.58 102.232a1.65 1.65 0 0 1-.09.19 5.242 5.242 0 0 1-.31.52 8.995 8.995 0 0 1-1.55 1.76 9.66 9.66 0 0 1-3.21 1.86 9.179 9.179 0 0 1-4.89.29 9.73 9.73 0 0 1-5.16-2.94c-1.47-1.61-2.35-3.78-3.72-5.68a7.502 7.502 0 0 0-2.61-2.36 7.64 7.64 0 0 0-3.58-.79 8.13 8.13 0 0 0-3.67 1 6.89 6.89 0 0 0-2.7 2.78c-.65 1.19-1.12 2.49-1.9 3.64a4.461 4.461 0 0 1-3.46 2.1 6.719 6.719 0 0 1-3.76-1.08 14.196 14.196 0 0 1-2.86-2.37c-1.67-1.68-3.31-3.36-5.35-3.81a6.8 6.8 0 0 0-5.42 1.27 9.301 9.301 0 0 0-3 3.68 15.454 15.454 0 0 0-1.12 3.47c-.2 1-.29 1.76-.35 2.29a6.132 6.132 0 0 1-.12.81.739.739 0 0 1 0-.21v-.61c.042-.778.132-1.553.27-2.32.184-1.22.52-2.413 1-3.55a9.549 9.549 0 0 1 3-3.86 7.117 7.117 0 0 1 5.73-1.39c2.21.47 3.92 2.23 5.58 3.89a14.22 14.22 0 0 0 2.78 2.28 6.24 6.24 0 0 0 3.48 1 4.003 4.003 0 0 0 3.06-1.88c.73-1.08 1.2-2.37 1.87-3.6a7.392 7.392 0 0 1 2.91-3 8.66 8.66 0 0 1 3.91-1.05 8.171 8.171 0 0 1 3.82.86 7.998 7.998 0 0 1 2.77 2.52c1.41 2 2.25 4.12 3.65 5.68a9.378 9.378 0 0 0 4.92 2.86 8.815 8.815 0 0 0 4.72-.21 9.6 9.6 0 0 0 3.17-1.73 12.08 12.08 0 0 0 2.19-2.31ZM398.35 102.473c.13.318.205.656.22 1a8.413 8.413 0 0 1-.27 2.89 10.01 10.01 0 0 1-2 3.8 11.74 11.74 0 0 1-4.26 3.11 17.475 17.475 0 0 1-9.41 1.06 25.752 25.752 0 0 1-2.82-.56 3.469 3.469 0 0 1-1-.34c0-.08 1.47.28 3.87.53 3.1.402 6.251-.001 9.15-1.17a11.648 11.648 0 0 0 4.11-2.94 10.098 10.098 0 0 0 2-3.6 11.46 11.46 0 0 0 .41-3.78Z" fill="#455A64"/><path d="M306.32 310.783a10.81 10.81 0 0 0 2.26 5.6c1.16 1.51 3.51 3 5.4 2.87a8.245 8.245 0 0 0 7.27-3.65c2.31-3.66 2.87-11.29 1-15.8-1.27-3.1-4.13-6-7.48-6.07-4.4-.1-7.16 3.08-8.1 6.3" fill="#E0E0E0"/><path d="M306.68 300.032a6.744 6.744 0 0 1 .82-2.16 8.644 8.644 0 0 1 1.65-2.169 7.614 7.614 0 0 1 3.11-1.821 7.878 7.878 0 0 1 2.09-.339 6.283 6.283 0 0 1 2.29.299 9.005 9.005 0 0 1 4.09 2.93 11.901 11.901 0 0 1 2.4 5c.423 1.947.575 3.943.45 5.931-.21 3.13-.82 6.249-2.56 8.629a7.677 7.677 0 0 1-3.32 2.5 8.888 8.888 0 0 1-3.75.63 5.669 5.669 0 0 1-2.7-.66 8.967 8.967 0 0 1-2-1.42 9.988 9.988 0 0 1-2.21-3.28 10.22 10.22 0 0 1-.7-2.429 5.222 5.222 0 0 1-.06-.66.53.53 0 0 1 0-.231 13.064 13.064 0 0 0 1 3.22 10.321 10.321 0 0 0 2.22 3.13 8.881 8.881 0 0 0 2 1.321 5.298 5.298 0 0 0 2.5.589 8 8 0 0 0 6.65-3c1.61-2.23 2.23-5.3 2.43-8.36.21-4-.45-7.94-2.7-10.6a8.741 8.741 0 0 0-3.85-2.819 6.156 6.156 0 0 0-2.15-.31 7.519 7.519 0 0 0-2 .289 7.349 7.349 0 0 0-3 1.69 8.876 8.876 0 0 0-1.7 2.04 20.161 20.161 0 0 0-1 2.06Z" fill="#263238"/><path d="M303.98 310.983a10.84 10.84 0 0 0 2.26 5.6c1.16 1.51 3.51 3 5.4 2.87a8.244 8.244 0 0 0 7.27-3.65c2.3-3.67 2.87-11.29 1-15.8-1.27-3.11-4.12-6-7.47-6.07a8.267 8.267 0 0 0-8.1 6.29" fill="#E0E0E0"/><path d="M304.36 300.223a6.719 6.719 0 0 1 .82-2.15 8.418 8.418 0 0 1 1.65-2.17 7.674 7.674 0 0 1 5.2-2.16 6.262 6.262 0 0 1 2.29.3 8.94 8.94 0 0 1 4.09 2.93 11.89 11.89 0 0 1 2.4 5c.425 1.946.573 3.942.44 5.93-.2 3.13-.81 6.24-2.55 8.63a7.693 7.693 0 0 1-3.32 2.5 8.92 8.92 0 0 1-3.75.63 5.687 5.687 0 0 1-2.7-.67 8.478 8.478 0 0 1-2-1.41 9.943 9.943 0 0 1-2.21-3.29 9.59 9.59 0 0 1-.7-2.42 5.222 5.222 0 0 1-.06-.66.525.525 0 0 1 0-.23c.194 1.108.53 2.187 1 3.21a10.074 10.074 0 0 0 2.22 3.14 8.855 8.855 0 0 0 2 1.32 5.427 5.427 0 0 0 2.5.59 8.007 8.007 0 0 0 6.65-3c1.61-2.24 2.23-5.3 2.42-8.36.22-4-.44-7.94-2.7-10.6a8.57 8.57 0 0 0-3.84-2.82 6.156 6.156 0 0 0-2.15-.31 7.643 7.643 0 0 0-2 .29 7.361 7.361 0 0 0-3 1.69 8.838 8.838 0 0 0-1.68 2.05 21.92 21.92 0 0 0-1.02 2.04Z" fill="#263238"/><path d="M308.22 299.102a5.145 5.145 0 0 0-5.37 3.09 8.924 8.924 0 0 0 0 6.53 8.26 8.26 0 0 0 1.67 2.94 4.436 4.436 0 0 0 3 1.45 5.19 5.19 0 0 0 4.16-2.44 9.347 9.347 0 0 0 1.41-7.67c-.46-1.74-1.73-3.51-3.52-3.56" fill="#E0E0E0"/><path d="M309.53 299.472h.39c.386.045.757.171 1.09.37a5.293 5.293 0 0 1 2.29 3.44 9.496 9.496 0 0 1-.62 6.12 7.99 7.99 0 0 1-2.24 2.94 4.34 4.34 0 0 1-3.86.93 5.454 5.454 0 0 1-3.09-2.52 11.295 11.295 0 0 1-1.28-3.46 7.69 7.69 0 0 1 1-6 5.373 5.373 0 0 1 3.49-2.22 3.889 3.889 0 0 1 1.14 0c.25.05.38.09.38.11a7.908 7.908 0 0 0-1.49.09 5.331 5.331 0 0 0-3.22 2.23 7.423 7.423 0 0 0-.83 5.73 10.969 10.969 0 0 0 1.25 3.29 4.934 4.934 0 0 0 2.79 2.28 3.808 3.808 0 0 0 3.4-.82 7.517 7.517 0 0 0 2.12-2.74 9.241 9.241 0 0 0 .7-5.84 5.293 5.293 0 0 0-2-3.35 4.249 4.249 0 0 0-1.41-.58Z" fill="#263238"/><path d="M313.26 315.542c-.07 0-.18-.32-.53-.72a3.69 3.69 0 0 0-1.7-1.09 9.276 9.276 0 0 0-2.1-.33c-.56 0-.91-.09-.92-.16-.01-.07.34-.15.91-.21a5.869 5.869 0 0 1 2.26.2c.764.22 1.421.711 1.85 1.38.32.52.29.92.23.93ZM314.05 297.742s-.15.35-.62.72a4.804 4.804 0 0 1-2.11.92c-.762.141-1.547.1-2.29-.12-.57-.19-.87-.41-.84-.47.993.154 2.001.181 3 .08a12.474 12.474 0 0 0 2.86-1.13Z" fill="#263238"/><path d="M169.058 113.399c-.36-.14-14.31-3.8-13.47 10.31.84 14.11 14.83 10.35 14.84 9.94.01-.41-1.37-20.25-1.37-20.25Z" fill="#FFBE9D"/><path d="M165.798 128.569c-.07-.05-.24.18-.64.4a2.443 2.443 0 0 1-1.84.14c-1.52-.45-2.92-2.74-3.14-5.28a8.243 8.243 0 0 1 .44-3.51 2.841 2.841 0 0 1 1.74-2 1.248 1.248 0 0 1 1.49.59c.21.38.14.67.21.69.07.02.29-.26.14-.83a1.514 1.514 0 0 0-.61-.85 1.815 1.815 0 0 0-1.38-.28 3.45 3.45 0 0 0-2.43 2.34 8.23 8.23 0 0 0-.62 4c.26 2.84 1.88 5.41 3.95 5.88.387.087.787.087 1.174-.001a2.626 2.626 0 0 0 1.056-.509c.45-.44.51-.76.46-.78Z" fill="#EB996E"/><path d="M204.278 63.009c7.17 0 14.47 0 23.44 4.69 5.66 3 9.18 7.63 12.13 13.29a30.599 30.599 0 0 1 3.34 14.89c-.26 4.88-.28 8.29-2.23 12.77" fill="#263238"/><path d="M201.408 64.119a38 38 0 0 1 40.65 35.94c.92 17.67 1.73 36.78 1.54 46.4-.42 20.66-21.11 23.71-21.11 23.71s.46 6.12 1 13.72a27.213 27.213 0 0 1-6.935 20.016 27.214 27.214 0 0 1-29.674 7.309 27.209 27.209 0 0 1-17.731-24.505l-3.07-83.26a38.003 38.003 0 0 1 35.36-39.35l-.03.02Z" fill="#FFBE9D"/><path d="M222.488 170.168s-12.7.66-26.5-8.17c0 0 6.25 15 26.87 13.34l-.37-5.17Z" fill="#EB996E"/><path d="M234.138 111.548a2.94 2.94 0 0 1-2.86 3 2.798 2.798 0 0 1-2.064-.708 2.815 2.815 0 0 1-.936-1.972 2.998 2.998 0 0 1 2.86-3 2.83 2.83 0 0 1 2.062.711 2.829 2.829 0 0 1 .938 1.969ZM237.008 107.368c-.37.38-2.59-1.29-5.77-1.31-3.18-.02-5.51 1.56-5.85 1.17-.17-.18.21-.87 1.23-1.6a8.008 8.008 0 0 1 4.69-1.4 7.685 7.685 0 0 1 4.58 1.52c.97.75 1.3 1.45 1.12 1.62ZM203.008 111.549a2.937 2.937 0 0 1-2.87 3 2.827 2.827 0 0 1-2.061-.711 2.81 2.81 0 0 1-.939-1.969 3.003 3.003 0 0 1 2.87-3 2.822 2.822 0 0 1 3 2.68ZM205.798 107.719c-.37.38-2.6-1.29-5.77-1.31-3.17-.02-5.51 1.55-5.86 1.16-.16-.17.21-.87 1.24-1.6a8.089 8.089 0 0 1 4.69-1.4 7.816 7.816 0 0 1 4.58 1.52c.94.76 1.3 1.45 1.12 1.63ZM217.128 131.318c0-.18 2-.5 5.16-.89.81-.08 1.58-.23 1.72-.78a4.057 4.057 0 0 0-.52-2.41c-.74-2-1.53-4-2.35-6.19-3.26-8.82-5.61-16.06-5.25-16.19.36-.13 3.29 6.91 6.54 15.73.79 2.17 1.54 4.24 2.25 6.23.503.98.645 2.106.4 3.18a2.082 2.082 0 0 1-1.35 1.18 6.142 6.142 0 0 1-1.37.18c-3.22.17-5.22.17-5.23-.04ZM207.768 133.468c.52 0 .49 3.42 3.42 5.89 2.93 2.47 6.61 2.12 6.63 2.6 0 .22-.83.67-2.38.7a8.6 8.6 0 0 1-5.53-2 7.533 7.533 0 0 1-2.65-4.94c-.12-1.4.27-2.27.51-2.25ZM206.708 95.319c-.32.86-3.48.43-7.21.85s-6.75 1.41-7.24.63c-.21-.37.32-1.18 1.54-2a12.636 12.636 0 0 1 11-1.12c1.37.51 2.05 1.19 1.91 1.64ZM236.558 96.069c-.56.72-2.74-.05-5.37-.1s-4.86.44-5.37-.32c-.22-.37.13-1.09 1.11-1.76a7.771 7.771 0 0 1 8.66.34c.92.75 1.22 1.49.97 1.84Z" fill="#263238"/><path d="M166.288 109.919s.9 4.78 1.14 6.93c.09.79 0 9.54 2.11 10 1.83.38 5.46-1.29 7.08-4.91s4.7-12.31 4.36-16.26c-.45-5.38-.7-10.86.38-16.16 1.08-5.3 3.61-10.46 7.86-13.8s10.4-4.49 15.24-2.07c3 1.5 5.21 4.15 8 6a12.411 12.411 0 0 0 8.52 2.21 8 8 0 0 0 6.59-5.4c.88-3.15-.74-6.6-3.27-8.69-2.53-2.09-5.78-3.05-9-3.69a48.39 48.39 0 0 0-26.82 1.88c-8.47 3.29-16 9.61-19.6 17.94-4.18 9.63-3.7 15.54-2.59 26" fill="#263238"/><path d="M213.508 111.678a24.109 24.109 0 0 0-.54-3.4 14 14 0 0 0-5.11-7.61 13.742 13.742 0 0 0-5.83-2.56 13.93 13.93 0 0 0-7.26.61 12.865 12.865 0 0 0-3.48 1.89c-1.127.81-2.113 1.8-2.92 2.93a13.763 13.763 0 0 0 0 16.29 13.113 13.113 0 0 0 2.92 2.93 12.802 12.802 0 0 0 3.48 1.88 13.934 13.934 0 0 0 7.26.62 13.686 13.686 0 0 0 5.83-2.57 13.995 13.995 0 0 0 5.12-7.6c.255-1.123.433-2.262.53-3.41a.593.593 0 0 1 0 .23v.67c.005.365-.025.73-.09 1.09a9.152 9.152 0 0 1-.26 1.46 13.995 13.995 0 0 1-5.09 7.86 14.158 14.158 0 0 1-6.466 2.776 14.157 14.157 0 0 1-7.004-.676 13.21 13.21 0 0 1-3.62-1.93 13.405 13.405 0 0 1-3-3 14.228 14.228 0 0 1 0-16.9 14.426 14.426 0 0 1 6.65-5 14.381 14.381 0 0 1 7.49-.59 14.117 14.117 0 0 1 6 2.7 13.998 13.998 0 0 1 5.09 7.85c.126.482.213.974.26 1.47.065.356.095.718.09 1.08v.67c-.03.17-.04.24-.05.24ZM249.878 111.679a26.205 26.205 0 0 0-.54-3.4 13.99 13.99 0 0 0-5.12-7.61 13.683 13.683 0 0 0-5.83-2.56 13.89 13.89 0 0 0-7.25.61 13.892 13.892 0 0 0-6.4 4.82 13.72 13.72 0 0 0 0 16.29 13.069 13.069 0 0 0 2.91 2.93 12.748 12.748 0 0 0 3.49 1.88 13.916 13.916 0 0 0 7.25.62 13.698 13.698 0 0 0 5.83-2.57 13.998 13.998 0 0 0 5.12-7.6c.255-1.124.435-2.263.54-3.41.005.076.005.153 0 .23v.67c.004.365-.023.729-.08 1.09a9.288 9.288 0 0 1-.27 1.46 13.9 13.9 0 0 1-5.09 7.86 14.074 14.074 0 0 1-6 2.69c-2.507.48-5.098.277-7.5-.59a14.16 14.16 0 0 1-6.64-5 14.191 14.191 0 0 1 0-16.9 13.323 13.323 0 0 1 3-3 13.51 13.51 0 0 1 3.62-1.94 14.41 14.41 0 0 1 7.5-.59 14.068 14.068 0 0 1 6 2.7 13.907 13.907 0 0 1 5.09 7.85c.129.482.219.973.27 1.47.057.357.084.718.08 1.08v.67c.013.082.019.166.02.25Z" fill="#263238"/><path d="M222.128 110.178c0 .08-.51-.18-1.3-.44a8.402 8.402 0 0 0-3.21-.42 8.729 8.729 0 0 0-3.1.821c-.75.37-1.17.69-1.22.62-.05-.07.3-.471 1-.941a7.24 7.24 0 0 1 3.247-1.02 7.235 7.235 0 0 1 3.353.58c.87.38 1.27.76 1.23.8ZM227.758 75.319c.21-1.07-.15-1.67.46-2.11.61-.44 2 .82 2.46 1.34.16.17.64-.49.83-.61a3.63 3.63 0 0 0 .36-1.37c-.09-.75-1.26-1-1.81-1.46a5.552 5.552 0 0 0-1.95-1.11 1.877 1.877 0 0 0-1.86.11 1.831 1.831 0 0 0-.42 1.4c-.002.5.093.996.28 1.46.189.466.546.845 1 1.06" fill="#263238"/><path d="M165.519 98.939s10.129 3.71 15.399 5.95l-.299-5.18-14.731-5.83s-.379 3.85-.369 5.06ZM166.469 90.889a58.27 58.27 0 0 1 7.169 2.75 56.43 56.43 0 0 1 7 3.23 58.287 58.287 0 0 1-7.169-2.75 56.46 56.46 0 0 1-7-3.23Z" fill="#EBEBEB"/><path d="m169.518 200.008-.78-24.51s4.87 22.43 30.38 22.14c24.37-.28 23.93-19.76 23.93-19.76l.87 9.88v39.91l-15.9 65.11-20.31 2.54-22.44-89 4.25-6.31Z" fill="#0694A2"/><path d="M220.778 192.169a2.477 2.477 0 0 1-.29.52c-.305.492-.639.967-1 1.42a20.984 20.984 0 0 1-4.54 4.4 26.115 26.115 0 0 1-8.48 4 29.875 29.875 0 0 1-11.45.79 37.112 37.112 0 0 1-11-3.31 47.98 47.98 0 0 1-8-4.84 56.716 56.716 0 0 1-4.86-4c-.55-.5-.95-.92-1.23-1.2a2.737 2.737 0 0 1-.4-.44c.17.106.328.23.47.37l1.3 1.12c1.12 1 2.78 2.33 4.94 3.88a49.891 49.891 0 0 0 8 4.7 37.329 37.329 0 0 0 10.85 3.22c3.763.472 7.581.224 11.25-.73 3-.779 5.842-2.071 8.4-3.82a22.522 22.522 0 0 0 4.59-4.22c.96-1.2 1.41-1.89 1.45-1.86Z" fill="#263238"/><path d="m203.078 401.428-.37-115.7-32.86-84.41-1.1-25.41-20 15.14s-29.13 100.27-29.62 96.81c-.49-3.46 0 113.57 0 113.57h83.95Z" fill="#EBEBEB"/><path d="M202.288 401.108c-.14 0-.26-26.07-.26-58.23s.12-58.23.26-58.23.26 26.07.26 58.23-.12 58.23-.26 58.23Z" fill="#263238"/><path d="m149.018 207.528 4.06 3.08-2.85 18.72 47.96 50.24-43.56-57.21 3.71-14.83h-9.32Z" fill="#E0E0E0"/><path d="m204.878 342.159-73.61-21.58-2.44-55.91 20.19-73.66s-48.12 24.01-51.4 39.31c-3.28 15.3-11.17 52.42-12 79.27-.75 24-.86 40 4.62 47.71 15.7 21.94 119.14 25.86 160.46 0" fill="#EBEBEB"/><path d="M199.118 280.778s-.09-.08-.24-.27-.39-.48-.66-.82l-2.5-3.2c-2.18-2.82-5.29-6.86-9.12-11.84l-29.93-39.17-2.25-3-.08-.1v-.12c1.28-5.12 2.53-10.09 3.72-14.83l.24.32h-9.56v-16.86l.08-.06 14.47-11 4-3 1-.77c.114-.094.238-.174.37-.24l-.33.29-1 .81-3.91 3.06-14.36 11.14.08-.16v16.52l-.24-.23h9.72l-.08.32-3.7 14.83-.05-.22 2.26 2.95 29.8 39.27 9 11.93c1 1.4 1.85 2.49 2.42 3.26.26.36.46.65.62.86l.23.33Z" fill="#263238"/><path d="M231.928 186.648c-5.87-10.26-8.919-9.2-8.919-9.2l.31 3.66v7.69l-2.79 33-17.831 71.69.371 107.94h67.409l8.39-131.76-.76-56.77-46.18-26.25Z" fill="#EBEBEB"/><path d="M278.118 212.898s17.45 12.88 19 33.61c1.23 16.83 4 62.92 4.55 72.95.8 15.62-11.37 52.21-43.05 41.85-19-6.22-89.18-30.07-89.18-30.07l4.67-29.81 83.3 5 1.66-69.48 19.05-24.05Z" fill="#EBEBEB"/><path d="M173.118 304.858s-23.58-2.55-29-1.23c-5.25 1.27-12.72 7.69-12.72 7.69l.11 9.31 37.93 10.61 3.68-26.38Z" fill="#FFBE9D"/><path d="M202.708 282.709c.026-.111.063-.218.111-.32.08-.23.199-.54.349-.92.33-.84.81-2 1.41-3.52l5.28-12.92 7.88-19.14c.75-1.79 1.491-3.66 2.421-5.491.93-1.83 1.94-3.659 3-5.489a122.356 122.356 0 0 1 7.479-10.8c1.36-1.75 2.731-3.46 4.151-5.1v.27l-2.94-7.47-.1-.25.25-.09 12.269-4.15-.13.34c-5.7-9.52-10.51-17.56-13.93-23.26-1.68-2.82-3.119-5.08-4.649-6a6.297 6.297 0 0 0-1.861-.75 6.534 6.534 0 0 1-.689-.17 5.5 5.5 0 0 1 .699.09 5.9 5.9 0 0 1 1.93.71 8.522 8.522 0 0 1 2.361 2.29 40.174 40.174 0 0 1 2.449 3.68l14.1 23.179.15.25-.28.091-12.27 4.21.15-.331 2.951 7.47.06.141-.111.12c-1.4 1.62-2.77 3.33-4.12 5.08a123.387 123.387 0 0 0-7.46 10.719c-1.069 1.82-2.12 3.61-3 5.44-.879 1.831-1.66 3.651-2.41 5.451-3 7.18-5.72 13.65-8 19.1-2.28 5.45-4.139 9.79-5.429 12.85-.64 1.49-1.15 2.66-1.5 3.49-.17.38-.301.67-.411.9a1.256 1.256 0 0 1-.16.3ZM287.689 355.508a1.9 1.9 0 0 1-.291.31l-.899.87a25.828 25.828 0 0 1-3.831 2.9 25.542 25.542 0 0 1-7 2.94 28.152 28.152 0 0 1-10 .64 31.555 31.555 0 0 1-5.75-1.22c-2-.62-3.92-1.39-6-2.11-4.11-1.5-8.529-3-13.169-4.68-9.3-3.26-19.55-6.74-30.351-10.29-21.599-7.09-41.299-13.07-55.579-17.34l-16.921-5-4.6-1.37-1.19-.36a2.245 2.245 0 0 1-.4-.15l.421.09 1.199.32 4.63 1.27c4 1.12 9.81 2.77 17 4.85 14.3 4.17 34.001 10.1 55.631 17.2 10.809 3.54 21.06 7 30.35 10.32 4.64 1.65 9.05 3.22 13.16 4.73 2.06.74 4 1.52 6 2.14 1.847.587 3.745.999 5.669 1.23 3.314.407 6.673.22 9.921-.55a26.295 26.295 0 0 0 7-2.83 28.264 28.264 0 0 0 3.859-2.81l.93-.83a2.39 2.39 0 0 1 .211-.27ZM131.468 320.798c0 .11-1.33-.18-3.44-.09a15.135 15.135 0 0 0-3.64.6 16.607 16.607 0 0 0-4.1 1.87 19.162 19.162 0 0 0-5.71 5.86c-1.11 1.8-1.6 3-1.69 3 .054-.308.148-.607.28-.89.303-.796.671-1.565 1.1-2.3a17.872 17.872 0 0 1 5.74-6.11 16.128 16.128 0 0 1 4.25-1.89 14.695 14.695 0 0 1 3.76-.51c.853-.012 1.704.065 2.54.23.313.035.619.112.91.23ZM108.278 313.498s0-.1.09-.27a2.67 2.67 0 0 1 .46-.65 4.736 4.736 0 0 1 2.62-1.3 13.324 13.324 0 0 1 4.32 0c1.75.231 3.47.65 5.13 1.25a22.526 22.526 0 0 1 8.13 5 17.005 17.005 0 0 1 1.89 2.21c.22.28.405.586.55.91-.09.07-.91-1.21-2.69-2.85a23.872 23.872 0 0 0-8.06-4.75 27.154 27.154 0 0 0-5-1.27 14.084 14.084 0 0 0-4.2-.12 4.827 4.827 0 0 0-2.53 1.08c-.5.43-.67.78-.71.76ZM135.758 249.318a7.952 7.952 0 0 1-.34-1.51c-.15-.48-.36-1.05-.59-1.71-.23-.66-.63-1.38-1.09-2.14a30.602 30.602 0 0 0-3.75-5 40.746 40.746 0 0 0-5.75-5.06 34.664 34.664 0 0 0-12.57-5.77 26.252 26.252 0 0 0-4.19-.54 9.362 9.362 0 0 1-1.55-.12 8.755 8.755 0 0 1 1.56-.08c1.426-.016 2.85.112 4.25.38a32.992 32.992 0 0 1 12.8 5.71 37.855 37.855 0 0 1 5.8 5.15 28.732 28.732 0 0 1 3.72 5.14c.45.79.74 1.56 1 2.21.26.65.4 1.28.52 1.77.1.518.16 1.043.18 1.57ZM275.508 334.779a1.804 1.804 0 0 1 0-.36v-1.05c0-.92-.07-2.27-.2-4a56.033 56.033 0 0 0-3-14.41 20.328 20.328 0 0 0-2-4.4 8.62 8.62 0 0 0-3.9-3.31c-3.35-1.44-7.38-1.25-11.48-1.48l-26.84-1.13c-22.18-1-41.91-1.8-54.31-2.46l.17-.14c-.75 4.56-1.35 8.17-1.76 10.68-.21 1.21-.37 2.15-.49 2.82-.05.3-.1.54-.13.73l-.06.24a1.16 1.16 0 0 1 0-.25l.1-.73c.09-.67.23-1.62.4-2.84.38-2.51.92-6.13 1.61-10.7v-.14h.15l54.31 2.26 26.84 1.21c2.06.1 4.07.15 6 .31 1.924.107 3.816.532 5.6 1.26a9.058 9.058 0 0 1 4.1 3.43 20.296 20.296 0 0 1 2 4.5 53.946 53.946 0 0 1 2.84 14.5c.11 1.74.11 3.1.1 4v1.05c-.04.28-.05.41-.05.41Z" fill="#263238"/><path d="M259.618 269.559c.14 0 .26 8.07.26 18s-.12 18-.26 18-.26-8.07-.26-18 .12-18 .26-18ZM98.198 228.488s-.06.23-.2.66c-.14.43-.39 1.08-.6 2-.49 1.73-1.11 4.31-1.8 7.68-1.39 6.74-3.1 16.6-5 28.94-.95 6.18-2 13-3 20.31-.51 3.67-.83 7.49-1.09 11.45-.26 3.96-.47 8-.63 12.24-.3 8.41-.48 17.29-.24 26.54.08 2.31.16 4.65.35 7 .06 1.18.26 2.34.4 3.51.214 1.17.498 2.325.85 3.46a19.706 19.706 0 0 0 3.32 6.33 14.202 14.202 0 0 0 5.68 4.38 86.914 86.914 0 0 0 14.83 5.66c5.17 1.55 10.51 2.8 15.93 3.91a219.078 219.078 0 0 0 35.8 4.36c5.701.147 11.405 0 17.09-.44 5.57-.39 11-1 16.25-1.75a170.893 170.893 0 0 0 29.16-6.78 148.525 148.525 0 0 0 23.58-10.12v.33l-32.26-11.47-8.71-3.11-2.25-.82c-.51-.19-.76-.3-.76-.3l.77.25 2.27.77 8.74 3 32.4 11.3.39.13-.36.2a148.902 148.902 0 0 1-23.63 10.21 170.68 170.68 0 0 1-29.23 6.85c-5.26.79-10.7 1.38-16.28 1.77-5.701.447-11.422.6-17.14.46a218.717 218.717 0 0 1-35.89-4.36c-5.44-1.12-10.79-2.37-16-3.92a88.37 88.37 0 0 1-14.92-5.71 14.718 14.718 0 0 1-5.92-4.54 20.221 20.221 0 0 1-3.39-6.5 29.126 29.126 0 0 1-.87-3.52c-.15-1.2-.34-2.38-.4-3.56-.19-2.36-.27-4.71-.34-7-.24-9.28 0-18.16.28-26.58.16-4.2.377-8.283.65-12.25.27-4 .6-7.8 1.12-11.47 1-7.35 2.06-14.14 3-20.31 2-12.34 3.74-22.19 5.19-28.92.72-3.37 1.36-5.95 1.88-7.68.22-.87.5-1.51.64-1.94.14-.43.34-.65.34-.65Z" fill="#263238"/><path d="M131.358 313.889c12.31-13.63 11.77-37.86 4.7-55.05-.65 18.62-2.85 35.14-4.53 53.24" fill="#E0E0E0"/><path d="M136.088 262.318c.022.2.022.401 0 .6 0 .45-.06 1-.11 1.7-.12 1.55-.28 3.67-.49 6.25-.44 5.34-1 12.59-1.69 20.61l-1.62 20.62c-.19 2.58-.35 4.7-.47 6.25l-.15 1.69a3.893 3.893 0 0 1-.08.59 2.011 2.011 0 0 1 0-.59c0-.45 0-1 .05-1.71.05-1.48.16-3.62.3-6.26.31-5.28.81-12.58 1.47-20.63.66-8.05 1.32-15.33 1.85-20.6.27-2.58.49-4.69.65-6.24.09-.69.16-1.25.21-1.69 0-.199.027-.398.08-.59ZM166.428 237.698c.264 3.517.351 7.045.26 10.57.091 3.526.004 7.053-.26 10.57-.14 0-.26-4.74-.26-10.57s.12-10.57.26-10.57Z" fill="#263238"/><path d="M158.408 272.808c.21 2.045.997 3.987 2.27 5.6 1.16 1.51 3.51 3 5.4 2.87a8.233 8.233 0 0 0 7.27-3.65c2.3-3.66 2.87-11.29 1-15.8-1.27-3.1-4.12-6-7.47-6.07-4.4-.1-7.16 3.08-8.1 6.3" fill="#E0E0E0"/><path d="M158.798 262.059c.146-.761.42-1.491.81-2.16a8.912 8.912 0 0 1 1.65-2.17 7.72 7.72 0 0 1 3.12-1.82 7.806 7.806 0 0 1 2.09-.34 6.28 6.28 0 0 1 2.29.3 8.999 8.999 0 0 1 4.08 2.93 11.785 11.785 0 0 1 2.41 5c.416 1.947.564 3.942.44 5.93-.2 3.13-.82 6.25-2.55 8.63a7.8 7.8 0 0 1-3.32 2.5 8.932 8.932 0 0 1-3.76.63 5.621 5.621 0 0 1-2.69-.66 9.088 9.088 0 0 1-2-1.42 10.144 10.144 0 0 1-2.2-3.28 9.358 9.358 0 0 1-.7-2.43 5.62 5.62 0 0 1-.06-.66.683.683 0 0 1 0-.23c.204 1.109.54 2.19 1 3.22a10.171 10.171 0 0 0 2.22 3.13 8.843 8.843 0 0 0 2 1.32 5.302 5.302 0 0 0 2.5.59 7.994 7.994 0 0 0 6.65-3c1.61-2.23 2.23-5.3 2.42-8.36.22-4-.45-7.94-2.7-10.6a8.655 8.655 0 0 0-3.88-2.79 6.196 6.196 0 0 0-2.15-.31 7.608 7.608 0 0 0-2 .29 7.48 7.48 0 0 0-3 1.69 9.108 9.108 0 0 0-1.67 2.05 20.158 20.158 0 0 0-1 2.02Z" fill="#263238"/><path d="M156.068 273.008a10.854 10.854 0 0 0 2.27 5.6c1.15 1.51 3.51 3 5.4 2.87a8.252 8.252 0 0 0 7.27-3.65c2.3-3.67 2.87-11.29 1-15.8-1.27-3.11-4.12-6-7.47-6.07a8.27 8.27 0 0 0-8.1 6.29" fill="#E0E0E0"/><path d="M156.458 262.249a6.836 6.836 0 0 1 .81-2.15 8.912 8.912 0 0 1 1.65-2.17 7.716 7.716 0 0 1 5.21-2.16 6.302 6.302 0 0 1 2.29.3 8.991 8.991 0 0 1 4.08 2.93 11.647 11.647 0 0 1 2.4 5c.424 1.946.575 3.942.45 5.93-.2 3.13-.82 6.24-2.55 8.63a7.8 7.8 0 0 1-3.32 2.5 8.934 8.934 0 0 1-3.76.63 5.614 5.614 0 0 1-2.69-.67 8.732 8.732 0 0 1-2-1.41 9.925 9.925 0 0 1-2.2-3.29 9.315 9.315 0 0 1-.7-2.42c0-.29-.06-.51-.07-.66a.885.885 0 0 1 0-.23 14.215 14.215 0 0 0 1 3.21 9.92 9.92 0 0 0 2.22 3.14 8.843 8.843 0 0 0 2 1.32 5.43 5.43 0 0 0 2.5.59 8.005 8.005 0 0 0 6.64-3c1.62-2.24 2.24-5.3 2.43-8.36.22-4-.45-7.94-2.7-10.6a8.558 8.558 0 0 0-3.85-2.82 6.143 6.143 0 0 0-2.14-.31 7.535 7.535 0 0 0-5 2 9.108 9.108 0 0 0-1.67 2.05 18.179 18.179 0 0 0-1.03 2.02Z" fill="#263238"/><path d="M160.318 261.129a5.134 5.134 0 0 0-3.204.642 5.136 5.136 0 0 0-2.166 2.448 8.874 8.874 0 0 0 0 6.53 8.117 8.117 0 0 0 1.67 2.94 4.405 4.405 0 0 0 3 1.45 5.212 5.212 0 0 0 4.13-2.44 9.336 9.336 0 0 0 1.41-7.67c-.46-1.74-1.74-3.51-3.53-3.56" fill="#E0E0E0"/><path d="M161.619 261.469h.4c.385.044.757.17 1.09.37a5.337 5.337 0 0 1 2.28 3.44 9.38 9.38 0 0 1-.62 6.12 7.772 7.772 0 0 1-2.24 2.94 4.346 4.346 0 0 1-3.86.93 5.4 5.4 0 0 1-3.08-2.52 11.288 11.288 0 0 1-1.28-3.46 7.673 7.673 0 0 1 1-6 5.375 5.375 0 0 1 3.48-2.22 3.888 3.888 0 0 1 1.15 0c.25.05.38.09.38.11a7.816 7.816 0 0 0-1.49.09 5.304 5.304 0 0 0-3.22 2.23 7.372 7.372 0 0 0-.83 5.73 10.75 10.75 0 0 0 1.25 3.29 4.891 4.891 0 0 0 2.78 2.28 3.834 3.834 0 0 0 3.41-.82 7.653 7.653 0 0 0 2.12-2.74 9.165 9.165 0 0 0 .69-5.84 5.24 5.24 0 0 0-2-3.35 4.138 4.138 0 0 0-1.41-.58Z" fill="#263238"/><path d="M165.358 277.568c-.08 0-.19-.32-.53-.72a3.725 3.725 0 0 0-1.71-1.09 8.628 8.628 0 0 0-2.1-.33c-.55 0-.91-.09-.91-.16s.34-.15.91-.21a5.887 5.887 0 0 1 2.26.2c.764.22 1.422.711 1.85 1.38.31.52.29.92.23.93ZM166.148 259.769s-.16.35-.62.72a4.822 4.822 0 0 1-2.11.92 5.014 5.014 0 0 1-2.3-.12c-.56-.19-.86-.41-.83-.47.993.154 2.001.181 3 .08a12.502 12.502 0 0 0 2.86-1.13ZM234.858 188.139s.12 0 .33.12c.306.136.603.289.89.46a17.494 17.494 0 0 1 3 2.14 21.445 21.445 0 0 1 6.44 10.18 65.005 65.005 0 0 1 2.45 11.86c.18 1.54.27 2.79.33 3.65.051.448.051.901 0 1.35a7.675 7.675 0 0 1-.22-1.33c-.13-.95-.3-2.17-.49-3.62a76.503 76.503 0 0 0-2.59-11.76 22.15 22.15 0 0 0-6.18-10.06 33.463 33.463 0 0 0-3.96-2.99ZM222.398 298.209c2.9-.11 5.22-3 8.12-2.84a4.002 4.002 0 0 1 2.729 1.412 4.018 4.018 0 0 1 .497 4.433 4.016 4.016 0 0 1-3.906 2.155c-3.05-.35-4.83-3.92-7.81-4.6" fill="#263238"/><path d="M246.978 300.678a17.09 17.09 0 0 1-2.71-.22l.16-1c3.58.57 6.59 0 8.94-1.75 3-2.17 4.87-6.06 5.67-11.56v-.21c.33-2.18.78-44.95.78-53.07 0-12.69-11.13-14.42-11.61-14.49-.48-.07-10.57-1.77-15.94 12.08-5.62 14.51-14.61 42.47-15.2 45.75-.08.4-.19.9-.31 1.47-.94 4.2-2.88 12.93 2.94 17.95 6.49 5.61 11.61 3.44 11.82 3.35l.41.91c-.24.1-5.88 2.55-12.88-3.5-6.28-5.42-4.25-14.54-3.27-18.93.13-.56.23-1 .3-1.43.6-3.3 9.62-31.38 15.26-45.93 5.64-14.55 16.92-12.73 17-12.7.08.03 12.44 1.9 12.44 15.47 0 6.69-.44 50.9-.79 53.22v.2c-.84 5.78-2.88 9.89-6.07 12.23a11.504 11.504 0 0 1-6.94 2.16Z" fill="#263238"/><path d="M260.348 241.058a18.409 18.409 0 0 0-2.08-5 17.194 17.194 0 0 0-3.95-4.28 17.001 17.001 0 0 0-6.43-3 18.793 18.793 0 0 0-12.65 1.65 22.654 22.654 0 0 0-4.41 3.15c.064-.109.141-.21.23-.3.229-.286.48-.553.75-.8a15.047 15.047 0 0 1 3.25-2.37 18.582 18.582 0 0 1 12.95-1.84 17.17 17.17 0 0 1 6.6 3.16 16.593 16.593 0 0 1 4 4.47 12.993 12.993 0 0 1 1.54 3.72c.095.355.165.716.21 1.08 0 .22.01.36-.01.36ZM285.818 320.999a35.146 35.146 0 0 0-1.38-4.26 18.554 18.554 0 0 0-6.78-8.14 14.722 14.722 0 0 0-5.5-2 47.209 47.209 0 0 0-4.85-.5l-3.29-.23a5.792 5.792 0 0 1-1.2-.16 4.998 4.998 0 0 1 1.21 0l3.3.06c1.64.036 3.276.17 4.9.4 2.022.263 3.966.944 5.71 2a18.084 18.084 0 0 1 6.84 8.44c.417 1.028.725 2.097.92 3.19.093.393.134.796.12 1.2Z" fill="#263238"/><path d="M235.368 304.319s9.84-14.89 12.35-16.84c2.51-1.95 24-11.65 26.49-10.09 2.49 1.56 1 4.94 1 4.94s9.08-3.18 10.05-1.93a4.487 4.487 0 0 1 0 5.12s5-.77 5 .78a6.364 6.364 0 0 1-2.9 5.22c-2.32 1.74-17.41 11.78-18.62 14.56l-4.89-.3-28.48-1.46Z" fill="#FFBE9D"/><path d="M263.668 300.049c.111-.331.263-.646.45-.94a18.248 18.248 0 0 1 1.62-2.32 26.998 26.998 0 0 1 7.13-6 54 54 0 0 1 8.44-4c1.11-.43 2-.75 2.65-1a4.348 4.348 0 0 1 1-.28 3.782 3.782 0 0 1-.93.47l-2.59 1.11a68.49 68.49 0 0 0-8.3 4.07 29.824 29.824 0 0 0-7.12 5.79c-1.56 1.85-2.26 3.15-2.35 3.1ZM251.198 299.809c.117-.381.278-.747.48-1.09a53.9 53.9 0 0 1 1.511-2.88 27.552 27.552 0 0 1 2.709-4 12.524 12.524 0 0 1 2.06-2.05c.83-.56 1.701-1.08 2.611-1.62a71.051 71.051 0 0 1 9.599-4.78 25.627 25.627 0 0 1 3.081-1c.384-.111.78-.182 1.179-.21 0 .09-1.629.47-4.119 1.59a90.403 90.403 0 0 0-9.481 4.89c-.9.53-1.769 1.06-2.579 1.59a12.424 12.424 0 0 0-2 1.93 29.045 29.045 0 0 0-2.761 3.9l-1.66 2.78a5.274 5.274 0 0 1-.63.95Z" fill="#EB996E"/><path d="M433.035 136.147c-4.12 10.3-10.7 26.95-13.73 34.6a4.4 4.4 0 0 0 2.471 5.7l28.139 11.21a4.394 4.394 0 0 0 4.779-1.019c.402-.414.719-.904.931-1.441l13.651-34.32a9.774 9.774 0 0 0-.099-7.477 9.758 9.758 0 0 0-5.361-5.213l2-5-18.42-7.31-1.901 4.74h-.07a9.76 9.76 0 0 0-12.39 5.53Z" fill="#F5F5F5"/><path d="m447.146 126.487-.911 2.29 18.161 8 1.18-2.95-18.43-7.34Z" fill="#E0E0E0"/><path d="m450.839 119.107 17.177 6.842a3.002 3.002 0 0 1 1.677 3.897l-1.821 4.571a1.93 1.93 0 0 1-2.507 1.079l-19.156-7.631a1.93 1.93 0 0 1-1.079-2.507l1.821-4.571a3 3 0 0 1 3.897-1.677l-.009-.003Z" fill="#EBEBEB"/><path d="M447.336 128.307a23.591 23.591 0 0 1 1.57-4.64 23.941 23.941 0 0 1 2.06-4.46 23.865 23.865 0 0 1-1.57 4.67 22.381 22.381 0 0 1-2.06 4.43ZM449.766 129.277c.361-1.6.887-3.158 1.57-4.65a22.24 22.24 0 0 1 2.06-4.45 23.837 23.837 0 0 1-1.57 4.65 22.377 22.377 0 0 1-2.06 4.45ZM452.196 130.247a23.53 23.53 0 0 1 1.57-4.65 22.543 22.543 0 0 1 2.06-4.46 23.401 23.401 0 0 1-1.57 4.65 24.1 24.1 0 0 1-2.06 4.46ZM454.625 131.216c.354-1.602.88-3.161 1.57-4.65a22.684 22.684 0 0 1 2.06-4.46 23.41 23.41 0 0 1-1.58 4.65 23.965 23.965 0 0 1-2.05 4.46ZM457.056 132.177c.356-1.601.882-3.16 1.57-4.65a23.293 23.293 0 0 1 2-4.45 23.022 23.022 0 0 1-1.57 4.65 23.39 23.39 0 0 1-2 4.45ZM459.495 133.147a23.499 23.499 0 0 1 1.581-4.65 24.055 24.055 0 0 1 2.049-4.46 22.576 22.576 0 0 1-1.57 4.65 22.543 22.543 0 0 1-2.06 4.46ZM461.906 134.117c.358-1.601.884-3.16 1.57-4.65a23.941 23.941 0 0 1 2.06-4.46 23.682 23.682 0 0 1-1.57 4.65 22.684 22.684 0 0 1-2.06 4.46ZM464.336 135.077a23.591 23.591 0 0 1 1.57-4.64 22.517 22.517 0 0 1 2.06-4.46 23.86 23.86 0 0 1-1.57 4.65 23.091 23.091 0 0 1-2.06 4.45Z" fill="#E0E0E0"/><path d="m461.206 153.159-23.653-9.422a1.48 1.48 0 0 0-1.922.827l-5.862 14.716c-.303.759.067 1.62.827 1.922l23.652 9.422a1.48 1.48 0 0 0 1.923-.827l5.862-14.715a1.481 1.481 0 0 0-.827-1.923Z" fill="#EBEBEB"/><path d="M454.356 169.237c.027-.102.061-.202.1-.3l.3-.82 1.17-3.09c1-2.67 2.5-6.44 4.28-11l.11.27-23.16-9.17c-.07 0 .64-.27.34-.14v.06l-.05.13-.1.25-.2.5-.4 1c-.27.66-.53 1.32-.79 2-.52 1.31-1 2.6-1.55 3.87l-2.92 7.29-.13-.31 16.56 6.72 4.76 2 1.28.54c.153.062.303.132.45.21l-.42-.14-1.25-.47-4.76-1.82-16.8-6.57-.22-.08.09-.23c.92-2.32 1.88-4.76 2.89-7.3.5-1.27 1-2.56 1.54-3.87.26-.66.52-1.32.79-2l.39-1 .21-.5.1-.25.05-.13v-.06l.35-.15 23.13 9.2.19.08-.08.19c-1.88 4.6-3.43 8.38-4.52 11.07l-1.26 3-.33.77c-.08.18-.127.263-.14.25Z" fill="#E0E0E0"/><path d="M454.856 157.557a70.198 70.198 0 0 1-8-2.89 69.142 69.142 0 0 1-7.77-3.37 68.202 68.202 0 0 1 8 2.89 69.301 69.301 0 0 1 7.77 3.37ZM453.795 160.227a67.664 67.664 0 0 1-8-2.89 71.232 71.232 0 0 1-7.769-3.37 69.067 69.067 0 0 1 8 2.89 70.11 70.11 0 0 1 7.769 3.37ZM452.776 162.797a66.708 66.708 0 0 1-8-2.89 70.14 70.14 0 0 1-7.771-3.37 67.535 67.535 0 0 1 8 2.89 71.263 71.263 0 0 1 7.771 3.37ZM462.826 137.646a80.883 80.883 0 0 1-8.67-3.17 82.884 82.884 0 0 1-8.49-3.66 79.486 79.486 0 0 1 8.68 3.17 82.72 82.72 0 0 1 8.48 3.66Z" fill="#E0E0E0"/><path d="M421.615 169.367c.145-.567.332-1.122.56-1.66.43-1.13 1-2.63 1.7-4.45 1.45-3.75 3.49-8.91 5.78-14.6 1.15-2.84 2.24-5.55 3.25-8a17.225 17.225 0 0 1 3.65-6.08 7.67 7.67 0 0 1 4.25-2.17 5.74 5.74 0 0 1 1.31 0c.151.016.299.053.44.11-.575-.01-1.149.024-1.719.1a7.782 7.782 0 0 0-4 2.23 17.222 17.222 0 0 0-3.471 6c-1 2.48-2.07 5.19-3.21 8-2.28 5.69-4.38 10.84-5.92 14.55l-1.85 4.38a10.22 10.22 0 0 1-.77 1.59ZM453.235 187.457a6.91 6.91 0 0 1-1.1-.89c-.34-.31-.77-.67-1.28-1.07s-1.06-.89-1.73-1.36a48.559 48.559 0 0 0-4.77-3.16 51.107 51.107 0 0 0-6.29-3 51.73 51.73 0 0 0-6.669-2.11 48.646 48.646 0 0 0-5.63-1c-.81-.12-1.55-.15-2.19-.21-.64-.06-1.211-.08-1.661-.09a8.558 8.558 0 0 1-1.42-.11 7.04 7.04 0 0 1 1.42-.1h1.671c.67 0 1.399 0 2.209.13a44.02 44.02 0 0 1 5.71.88 49.573 49.573 0 0 1 6.761 2.09 48.57 48.57 0 0 1 6.339 3.13 44.733 44.733 0 0 1 4.75 3.28c.65.49 1.2 1 1.69 1.43.427.359.834.739 1.221 1.14a7.6 7.6 0 0 1 .969 1.02Z" fill="#fff"/><path d="M435.28 9.992h-6.6v29.59h6.6V9.992Z" fill="#0694A2"/><path d="M417.18 21.482v6.6h29.59v-6.6h-29.59Z" fill="#0694A2"/><path d="M456.55 24.862a3.362 3.362 0 0 1-.05-.4c0-.29-.05-.68-.08-1.17 0-.26 0-.55-.06-.86-.06-.31-.1-.66-.16-1a17.723 17.723 0 0 0-.52-2.54 23.494 23.494 0 0 0-2.74-6.52 24.431 24.431 0 0 0-29.37-10.43 24.87 24.87 0 0 0-3.19 1.4 25.784 25.784 0 0 0-3 1.93 27.727 27.727 0 0 0-2.77 2.35 28.403 28.403 0 0 0-2.39 2.83 23.844 23.844 0 0 0-3.49 6.72c-1.68 5-1.68 10.41 0 15.41a23.713 23.713 0 0 0 3.49 6.72 26.288 26.288 0 0 0 2.39 2.83 26.594 26.594 0 0 0 2.77 2.36 25.795 25.795 0 0 0 3 1.93 26.37 26.37 0 0 0 3.19 1.4 24.51 24.51 0 0 0 29.37-10.42 23.42 23.42 0 0 0 2.74-6.53c.236-.83.41-1.675.52-2.53.06-.38.13-.72.16-1s0-.6.06-.86c0-.5.06-.88.08-1.17.008-.135.024-.268.05-.4.011.133.011.267 0 .4v2.04c0 .32-.09.66-.13 1-.099.863-.26 1.719-.48 2.56a23.56 23.56 0 0 1-2.69 6.63 24.846 24.846 0 0 1-16.81 11.76 25 25 0 0 1-13-1.05 27.332 27.332 0 0 1-3.25-1.42 27.498 27.498 0 0 1-5.89-4.36 27.088 27.088 0 0 1-2.44-2.88 23.866 23.866 0 0 1-3.57-6.87 26.533 26.533 0 0 1-1.29-7.87c.037-2.67.471-5.319 1.29-7.86a24.084 24.084 0 0 1 3.57-6.86 28.255 28.255 0 0 1 2.44-2.89 28.792 28.792 0 0 1 2.83-2.39 24.849 24.849 0 0 1 19.31-4.43 24.847 24.847 0 0 1 16.71 11.77 23.631 23.631 0 0 1 2.69 6.62c.219.844.38 1.703.48 2.57 0 .37.11.72.13 1v2.04c.047.143.08.29.1.44Z" fill="#0694A2"/><path d="m79.601 73.045-77.43 37.264a2.41 2.41 0 0 0-1.126 3.217L53.02 221.52a2.41 2.41 0 0 0 3.217 1.127l77.429-37.265a2.409 2.409 0 0 0 1.127-3.216L82.818 74.171a2.41 2.41 0 0 0-3.217-1.126Z" fill="#E0E0E0"/><path d="M78.368 76.587 5.723 111.55 56.045 216.11l72.644-34.962-50.321-104.56Z" fill="#FAFAFA"/><path d="M57.58 88.539a9.86 9.86 0 0 0-10.33-1.08l-2.23-4.39a6.77 6.77 0 0 0-9-3.17 6.78 6.78 0 0 0-3.17 9.06l2.23 4.63-1.55.78a9.89 9.89 0 0 0-5.45 8.7v2.3l31.63-15.22-2.13-1.61Zm-16.88.72a3.65 3.65 0 1 1-3.154-6.585A3.65 3.65 0 0 1 40.7 89.26Z" fill="#EBEBEB"/><path d="M39.779 113.399c.07.13-4.29 2.36-9.73 5s-9.9 4.63-10 4.5c-.1-.13 4.29-2.36 9.73-5s9.94-4.63 10-4.5ZM31.18 121.629a26.735 26.735 0 0 1-4.63 2.52 26.5 26.5 0 0 1-4.86 2 26.942 26.942 0 0 1 4.66-2.47 27.861 27.861 0 0 1 4.83-2.05ZM81.91 108.618c.06.12-12.16 6.14-27.3 13.42s-27.46 13.09-27.52 13c-.06-.09 12.16-6.18 27.26-13.47 15.1-7.29 27.5-13.08 27.56-12.95ZM84.43 113.838c.06.13-12.16 6.14-27.3 13.43s-27.46 13.09-27.52 13c-.06-.09 12.15-6.14 27.3-13.43s27.44-13.13 27.52-13ZM86.94 119.069c.07.13-12.16 6.14-27.29 13.43-15.13 7.29-27.46 13.09-27.53 13-.07-.09 12.16-6.14 27.3-13.43s27.46-13.13 27.52-13ZM89.46 124.298c.06.13-12.16 6.14-27.3 13.43s-27.46 13.08-27.52 13c-.06-.08 12.16-6.14 27.3-13.42s27.46-13.14 27.52-13.01ZM91.98 129.518c.06.13-12.16 6.15-27.3 13.43-15.14 7.28-27.46 13.09-27.52 13-.06-.09 12.19-6.18 27.29-13.47 15.1-7.29 27.46-13.08 27.53-12.96ZM94.49 134.748c.06.13-12.16 6.14-27.29 13.43-15.13 7.29-27.47 13.09-27.53 13-.06-.09 12.16-6.14 27.3-13.43s27.46-13.13 27.52-13ZM69.35 152.658a5.034 5.034 0 0 1-1 .61l-2.9 1.49c-2.46 1.23-5.88 2.91-9.66 4.73-3.78 1.82-7.23 3.45-9.73 4.6l-3 1.34c-.355.186-.732.327-1.12.42a6.294 6.294 0 0 1 1-.61l2.9-1.48c2.46-1.24 5.88-2.92 9.66-4.74 3.78-1.82 7.23-3.44 9.73-4.59l3-1.34a5.344 5.344 0 0 1 1.12-.43ZM78 94.418a23.08 23.08 0 0 1-4.28 2.35 22.788 22.788 0 0 1-4.5 1.88 23.08 23.08 0 0 1 4.28-2.35 22.787 22.787 0 0 1 4.5-1.88ZM62.35 170.068a58.617 58.617 0 0 1-7 3.66 60.35 60.35 0 0 1-7.23 3.19 58.917 58.917 0 0 1 7-3.66 60.516 60.516 0 0 1 7.23-3.19ZM65.13 174.568a60.6 60.6 0 0 1-7.12 3.71 61.254 61.254 0 0 1-7.35 3.25 62.757 62.757 0 0 1 7.12-3.72 62.327 62.327 0 0 1 7.35-3.24ZM103.349 149.459a13.695 13.695 0 0 1-3.32 1.89 14.01 14.01 0 0 1-3.56 1.42 14.57 14.57 0 0 1 3.33-1.89 14.422 14.422 0 0 1 3.55-1.42ZM105.619 153.618a14.554 14.554 0 0 1-3.33 1.89 14.384 14.384 0 0 1-3.55 1.42 13.71 13.71 0 0 1 3.32-1.89 14.018 14.018 0 0 1 3.56-1.42ZM60.89 182.748c-.981.755-2.061 1.371-3.21 1.83a13.464 13.464 0 0 1-3.44 1.37 13.639 13.639 0 0 1 3.21-1.88 13.39 13.39 0 0 1 3.44-1.32ZM108.249 158.488a7.383 7.383 0 0 1-2.37 1.43 7.988 7.988 0 0 1-2.61 1 7.463 7.463 0 0 1 2.38-1.44 7.598 7.598 0 0 1 2.6-.99ZM59.22 197.409c.085-.079.18-.15.28-.21l.84-.56 3.23-2.07 11.61-7.29.23-.15.1.25a6.59 6.59 0 0 1 .13 4.41 5.381 5.381 0 0 1-3.2 3.46 5.318 5.318 0 0 1-5-.55 4.653 4.653 0 0 1-1.65-4.87 4.312 4.312 0 0 1 1-1.82c.116-.13.243-.251.38-.36.134-.124.286-.228.45-.31a.761.761 0 0 1 .7 0c.17.117.307.275.4.46a8.721 8.721 0 0 1 1 3.7 8.62 8.62 0 0 1-.57 3.65 5.53 5.53 0 0 1-2.15 2.85 3.185 3.185 0 0 1-3.38-.07 4.86 4.86 0 0 1-2-2.51 11.692 11.692 0 0 1 0-5.65l.06-.38.26.29a7.887 7.887 0 0 1 1.91 4.31 8.48 8.48 0 0 1-.34 3.55 7.573 7.573 0 0 1-1 2c-.16.21-.29.35-.38.45-.09.1-.13.15-.14.14a9.316 9.316 0 0 0 1.33-2.66 8.55 8.55 0 0 0 .24-3.45 7.547 7.547 0 0 0-1.89-4.1l.32-.09a11.25 11.25 0 0 0 0 5.44 4.394 4.394 0 0 0 1.83 2.26 2.723 2.723 0 0 0 2.89.05 5.133 5.133 0 0 0 1.94-2.61 8.379 8.379 0 0 0 .52-3.46 8.239 8.239 0 0 0-1-3.47.616.616 0 0 0-.21-.27.223.223 0 0 0-.11-.03.224.224 0 0 0-.11.03 2.46 2.46 0 0 0-.65.54 3.76 3.76 0 0 0-.84 1.59 4.142 4.142 0 0 0 1.46 4.33 4.83 4.83 0 0 0 4.46.5 4.902 4.902 0 0 0 2.92-3.14 6.09 6.09 0 0 0-.09-4.09l.33.11-11.71 7.13-3.3 2-.87.5c-.071.065-.148.122-.23.17ZM111.139 172.198c-.003.32-.057.638-.16.94a3.98 3.98 0 0 1-.46 1.06 2.238 2.238 0 0 1-1.25 1 1.543 1.543 0 0 1-1 0 2.003 2.003 0 0 1-.84-.65 18.85 18.85 0 0 1-1.12-1.9l-2.45-4.58.45-.1c-.08 2.29-.16 4.79-.26 7.41 0 .63 0 1.24-.07 1.85v1l-.45-.93c-1.37-2.81-2.64-5.44-3.76-7.72h.42a26.645 26.645 0 0 0-1 7c0 1.71.11 2.68.06 2.69a2.306 2.306 0 0 1-.15-.7 19.772 19.772 0 0 1-.17-2 24.398 24.398 0 0 1 .78-7.09l.15-.58.26.54 3.83 7.69-.5.1c0-.6 0-1.22.07-1.85.11-2.62.21-5.12.3-7.41v-.9l.41.79c.88 1.65 1.69 3.19 2.42 4.57.316.649.666 1.28 1.05 1.89a1.338 1.338 0 0 0 1.45.61 2.555 2.555 0 0 0 1.63-1.78c.099-.324.219-.641.36-.95Z" fill="#E0E0E0"/><path d="M111.039 168.459c.08.11-4.05 3.06-9.22 6.58-5.17 3.52-9.43 6.27-9.51 6.15-.08-.12 4-3.06 9.22-6.58 5.22-3.52 9.43-6.27 9.51-6.15ZM116.109 169.328a78.869 78.869 0 0 1-6.76 6.15 79.392 79.392 0 0 1-7.1 5.76 80.978 80.978 0 0 1 6.76-6.15 79.744 79.744 0 0 1 7.1-5.76Z" fill="#E0E0E0"/><path d="M298.51 46.232h-4.21l-9.13-12.83v-8.4s-6.51-.4-5.74 10.6c.77 11-.06 8.19-.06 8.19s-13.81.06-15 1.26c-.84.87-1.21 14.59-1.36 22a8.055 8.055 0 0 0 5.71 8.11c.471.14.958.221 1.45.24 3.44 0 21-2.8 21-2.8h7.27l.07-26.37ZM310.56 43.922l-2.59 28.78h-7.21v-28.2l9.8-.58Z" fill="#F5F5F5"/></svg>